<svg xmlns="http://www.w3.org/2000/svg" viewBox="0 0 511.81 491.3">
  <path d="M509.66,202.51a44.34,44.34,0,0,0-42.78-31H339L298.72,49.17A44.31,44.31,0,0,0,256,18.26h-.19a44.33,44.33,0,0,0-42.65,31.25l-39.1,122h-129A45,45,0,0,0,18.73,252.9l104.34,75.43-40.17,122A45,45,0,0,0,152,500.88L256.5,425.34l103.29,75.41a45,45,0,0,0,69.37-50.06L390,328.36,493.42,252.8a44.33,44.33,0,0,0,16.24-50.29Zm-33.93,26.07L354.8,316.9l45.81,142.92a15,15,0,0,1-23.12,16.68L256.6,388.23,134.42,476.55a15,15,0,0,1-23-16.85l47-142.8L36.3,228.62a15,15,0,0,1,8.79-27.15H195.93L241.7,58.66a14.58,14.58,0,0,1,14.22-10.42H256a14.56,14.56,0,0,1,14.26,10.31L317.3,201.47H466.89a15,15,0,0,1,8.84,27.11Z" transform="translate(-0.19 -18.25)"/>
</svg>
